<svg xmlns="http://www.w3.org/2000/svg" xmlns:xlink="http://www.w3.org/1999/xlink" version="1.1" x="0px" y="0px" viewBox="0 0 50 62.5" enable-background="new 0 0 50 50" xml:space="preserve"><g fill="#008080"><path d="M2.1,3.6C2.1,4.4,2.9,5,3.6,5H5v23.7c2.3-1.9,5.1-3,8.3-3c6.7,0,12.1,5.3,12.6,11.9h4.9c1.3-4.3,5.1-7.4,9.9-7.4   c2.1,0,4.1,0.7,5.9,1.9v-6c0-1-0.7-1.7-1.6-1.9l-2-0.7v-6.3c0-0.9-0.6-1.4-1.4-1.4S40,16.3,40,17.1v5.3l-2.4-0.9v-7.4   c0-0.9,0.7-1.6,1.6-1.6h1.3c0.9,0,1.4-0.7,1.4-1.4c0-0.9-0.7-1.4-1.4-1.4h-3c-1.6,0-3,1.3-3,3V21l-6.6-2.4   c-0.4-0.1-0.7-0.4-0.7-0.9L23.3,5.1c0,0,0,0,0-0.1h1c0.9,0,1.4-0.7,1.4-1.4S25,2.1,24.3,2.1H3.6C2.9,2.1,2.1,2.9,2.1,3.6z M8.1,7.4   c0-0.4,0.4-0.9,1-0.9h9.7c0.4,0,0.7,0.3,0.9,0.6l3.1,8.6c0.1,0.6-0.3,1.1-0.9,1.1H9.1c-0.6,0-1-0.4-1-0.9V7.4z"/><path d="M40.4,33.1c-4.1,0-7.4,3.3-7.4,7.4s3.3,7.4,7.4,7.4s7.4-3.3,7.4-7.4S44.6,33.1,40.4,33.1z"/><path d="M13.3,28.7c-5.3,0-9.6,4.3-9.6,9.6s4.3,9.6,9.6,9.6s9.6-4.3,9.6-9.6S18.6,28.7,13.3,28.7z"/></g></svg>