<svg xmlns="http://www.w3.org/2000/svg" xmlns:xlink="http://www.w3.org/1999/xlink" viewBox="0 0 200 137.5" version="1.1" x="0px" y="0px"><g stroke="none" stroke-width="1" fill="none" fill-rule="evenodd"><g transform="translate(-5992.000000, -10523.000000)" fill="#008080" fill-rule="nonzero"><path d="M6112.00047,10538.6837 C6115.16085,10535.5361 6118.88317,10531.8289 6123.16743,10527.562 C6125.52498,10525.2114 6128.6658,10523.9156 6132.00177,10523.9156 C6135.33513,10523.9156 6138.47595,10525.2114 6140.8335,10527.562 L6190.17306,10576.7018 C6191.95293,10578.4822 6192.49158,10581.1542 6191.52618,10583.4841 C6190.55817,10585.801 6188.2839,10587.3197 6185.75199,10587.3197 L6178.33062,10587.3197 L6178.33062,10619.4357 C6178.33062,10632.1709 6167.84133,10632.9374 6154.95282,10632.9374 L6150.05295,10632.9374 C6146.6181,10632.9374 6120.89055,10632.9374 6117.43488,10632.9374 L6110.98932,10632.9374 C6097.84842,10632.9374 6086.7372,10631.9584 6086.7372,10619.4357 L6086.7372,10587.3197 L6078.24894,10587.3197 C6075.71964,10587.3197 6073.44276,10585.801 6072.47736,10583.4841 C6071.50935,10581.1542 6072.0402,10578.4822 6073.82787,10576.7018 L6074.24384,10576.2878 C6074.47979,10575.9172 6074.75877,10575.5684 6075.0793,10575.2492 L6086.83976,10563.5458 C6086.78272,10563.2013 6086.7372,10562.8554 6086.7372,10562.466 L6086.7372,10545.3068 C6086.7372,10541.9222 6088.7781,10539.015 6091.70296,10537.7387 C6092.88111,10537.0687 6094.24568,10536.686 6095.70081,10536.686 L6095.74889,10536.686 C6100.02047,10536.686 6103.46962,10539.9825 6103.76568,10544.1587 C6103.76568,10545.8389 6103.82272,10546.6222 6103.93679,10546.5086 C6104.1079,10546.3382 6104.90553,10545.5438 6105.19366,10545.2568 C6107.01182,10543.446 6109.24625,10541.2206 6111.89696,10538.5806 L6112.00047,10538.6837 Z M6091.24678,10632.9374 C6084.85587,10632.9374 6078.96424,10632.9374 6077.43488,10632.9374 L6074.95282,10632.9374 L6070.98895,10632.9374 C6057.84806,10632.9374 6046.73684,10631.9584 6046.73684,10619.4357 L6046.73684,10587.3197 L6038.24858,10587.3197 C6035.71928,10587.3197 6033.4424,10585.801 6032.477,10583.4841 C6031.50899,10581.1542 6032.03984,10578.4822 6033.82751,10576.7018 L6046.86956,10563.7229 C6046.7993,10563.3186 6046.73684,10562.9221 6046.73684,10562.466 L6046.73684,10545.3068 C6046.73684,10540.743 6050.44751,10537.0473 6055.03253,10537.0473 L6055.08197,10537.0473 C6055.91643,10537.0473 6056.72038,10537.1697 6057.47737,10537.3973 C6060.70521,10538.3677 6063.07936,10541.2529 6063.32597,10544.7315 C6063.32597,10546.3462 6063.3772,10547.1554 6063.47966,10547.1589 C6063.48665,10547.1591 6063.49398,10547.1554 6063.50155,10547.1479 C6063.6775,10546.9726 6064.4977,10546.1558 6064.79398,10545.8607 C6066.7348,10543.9277 6069.1369,10541.5353 6072.00029,10538.6835 C6075.16085,10535.5361 6078.88317,10531.8289 6083.16743,10527.562 C6085.52498,10525.2114 6088.6658,10523.9156 6092.00177,10523.9156 C6095.33513,10523.9156 6098.47595,10525.2114 6100.8335,10527.562 L6109.87471,10536.5666 C6108.45677,10537.9788 6106.98909,10539.4405 6105.47167,10540.9518 C6103.76595,10536.8786 6099.75274,10534.0473 6095.08207,10534.0473 L6095.03263,10534.0473 C6088.79403,10534.0473 6083.73694,10539.0828 6083.73694,10545.3068 L6083.73694,10562.466 C6083.73694,10562.5138 6083.73729,10562.5607 6083.73799,10562.607 L6071.71058,10574.5762 C6069.061,10577.2151 6068.27173,10581.1813 6069.70788,10584.6379 C6071.14069,10588.0766 6074.51244,10590.3197 6078.24868,10590.3197 L6083.73694,10590.3197 L6083.73694,10619.4357 C6083.73694,10625.8895 6086.34945,10630.3625 6091.24678,10632.9374 Z M6069.42558,10536.1193 C6067.96838,10537.5706 6066.45744,10539.0754 6064.89276,10540.6337 C6063.2141,10536.6252 6059.2646,10533.8389 6054.66807,10533.8389 L6054.61942,10533.8389 C6048.47984,10533.8389 6043.50302,10538.7945 6043.50302,10544.9197 L6043.50302,10561.8064 C6043.50302,10561.8535 6043.50337,10561.8997 6043.50406,10561.9453 L6031.66755,10573.7244 C6029.06003,10576.3214 6028.28329,10580.2247 6029.69665,10583.6265 C6031.10671,10587.0105 6034.42494,10589.218 6038.10188,10589.218 L6043.50302,10589.218 L6043.50302,10617.8719 C6043.50302,10624.864 6046.61896,10629.4936 6052.42058,10631.8693 C6053.46341,10632.2963 6054.55297,10632.6487 6055.73062,10632.9374 C6047.82681,10632.9374 6039.31932,10632.9374 6037.43488,10632.9374 L6030.98932,10632.9374 C6017.84842,10632.9374 6006.7372,10631.9584 6006.7372,10619.4357 L6006.7372,10587.3197 L5998.24894,10587.3197 C5995.71964,10587.3197 5993.44276,10585.801 5992.47736,10583.4841 C5991.50935,10581.1542 5992.0402,10578.4822 5993.82787,10576.7018 L6006.86992,10563.7229 C6006.79966,10563.3186 6006.7372,10562.9221 6006.7372,10562.466 L6006.7372,10545.3068 C6006.7372,10540.743 6010.44787,10537.0473 6015.03289,10537.0473 L6015.08233,10537.0473 C6019.47478,10537.0473 6023.02153,10540.4372 6023.32597,10544.7315 C6023.32597,10546.4592 6023.38462,10547.2647 6023.50192,10547.1479 C6023.67787,10546.9726 6024.49807,10546.1558 6024.79435,10545.8607 C6028.87726,10541.7943 6035.00161,10535.6947 6043.16743,10527.562 C6045.52498,10525.2114 6048.6658,10523.9156 6052.00177,10523.9156 C6055.33513,10523.9156 6058.47595,10525.2114 6060.8335,10527.562 L6069.42558,10536.1193 Z"/></g></g></svg>